<svg id="Livello_1" data-name="Livello 1" xmlns="http://www.w3.org/2000/svg" viewBox="0 0 618.77 778.51"><defs><style>.cls-1{fill:#ebe9e4;}.cls-2,.cls-5{fill:none;stroke-width:10px;}.cls-2{stroke:#000;}.cls-2,.cls-4,.cls-5{stroke-miterlimit:10;}.cls-3{fill:#692816;}.cls-4{fill:#ad6e56;stroke:#692816;}.cls-5{stroke:#011d34;}</style></defs><path class="cls-1" d="M115.15,419.56c56.26-28.14,30.53-48.7,274.29-56.27C560,358,597.55,391.76,642.63,419.56c.47,12.62.55,27.7-.36,44.75A487.09,487.09,0,0,1,530.1,750.11a282.32,282.32,0,0,1-105.5,42.2,289,289,0,0,1-98.46,0c-16.77-2.87-52.46-9-84.4-28.13-57.25-34.34-77-95.37-98.46-161.76C130,561.45,114.89,498.87,115.15,419.56Z" transform="translate(-109.98 -18)"/><path class="cls-1" d="M723.51,560c-.91,8.2-7.78,62.37-56.27,95.21-34.94,23.67-71.1,22.47-82.84,21.58q9.76-21.35,19.54-42.67c9.36-2.06,50.46-12.15,70.33-49.24,5.65-10.54,18.13-33.81,7-56.26-11.35-23-38.71-27.6-42.2-28.13q1.57-18.07,3.16-36.13c5.76.32,36.79,2.63,60.14,29.09C727.05,521.34,724.08,554.57,723.51,560Z" transform="translate(-109.98 -18)"/><path class="cls-2" d="M642.65,464.25c0-.63,0-1.27,0-1.88-.07,3.64-.45,25.38-2.42,42.92,1.25,0,60.31-.23,43.66,62.66-14.88,56.18-64.59,63-75.6,63.84A220.15,220.15,0,0,1,585,674.26c20.87.76,106.56-2,132.82-94C747.07,477.68,659.56,465.62,642.65,464.25Z" transform="translate(-109.98 -18)"/><path class="cls-2" d="M593.38,659.73c26.3-51.89,38.83-104.27,45.15-147.29h.08c3.23-20.72,4.82-46.58,5.09-50.91,1.2-21.68.59-34.91.59-34.91s5-61.41-267.1-61.41-261.88,61.41-261.88,61.41S106,624.27,228.92,748.76c0,0,39.44,42.38,150.87,42.38,110.09,0,147-39.4,147-39.4A108,108,0,0,0,537,742.2a331.15,331.15,0,0,0,26-31.68c.82.08-1.19-.1,0,0,14.71-20.19,25.85-40.1,30-49.3Z" transform="translate(-109.98 -18)"/><path class="cls-3" d="M607.66,446.18c0,20-101.12,36.22-225.85,36.22S156,466.19,156,446.18,257.06,410,381.81,410,607.66,426.17,607.66,446.18Z" transform="translate(-109.98 -18)"/><path class="cls-4" d="M580.5,445.73c-21.29-8.6-83.81-19.92-187.41-19.92,0,0-66.4-.88-112.3,3.08" transform="translate(-109.98 -18)"/><path class="cls-2" d="M140.69,445.73s.72,209.67,129.94,327.57c0,0-27.42-3.41-53.73-37.4,0,0-97.05-89.08-101.59-309.28C115.31,426.62,123.46,437.8,140.69,445.73Z" transform="translate(-109.98 -18)"/><path d="M137.8,452a18.43,18.43,0,0,0,1.46,1.32c.6.48,1.19,1,1.82,1.43l1.92,1.38,2,1.33c1.35.87,2.74,1.71,4.15,2.53s2.83,1.63,4.3,2.37,2.92,1.52,4.42,2.21l4.5,2.1c3.06,1.28,6.11,2.62,9.25,3.76,6.22,2.43,12.63,4.43,19.07,6.37l9.76,2.64,9.85,2.34-10.08-1.11-10.07-1.43c-6.69-1.14-13.39-2.36-20-4-3.33-.77-6.62-1.75-9.93-2.68L155.28,471c-1.64-.53-3.26-1.17-4.89-1.75s-3.23-1.29-4.86-1.93-3.21-1.41-4.8-2.18l-2.39-1.19L136,462.61c-.79-.45-1.57-.94-2.36-1.42a30,30,0,0,1-2.54-1.78Z" transform="translate(-109.98 -18)"/><path d="M133,464.1c.29.14.58.3.86.47l.36.23.12.09.48.35,1,.69c.62.45,1.28.88,1.93,1.33,1.32.86,2.64,1.72,4,2.54,2.72,1.66,5.55,3.19,8.42,4.69,5.74,3,11.71,5.58,17.78,8l4.58,1.76c1.53.57,3.08,1.09,4.63,1.64,3.08,1.13,6.23,2.07,9.36,3.08s6.32,1.83,9.49,2.75l9.59,2.45L195.72,493c-3.27-.52-6.56-1-9.82-1.55s-6.55-1.15-9.79-1.89c-1.62-.36-3.26-.69-4.88-1.07l-4.86-1.19c-6.46-1.67-12.9-3.58-19.24-5.89-3.17-1.17-6.33-2.4-9.45-3.8-1.57-.67-3.12-1.42-4.67-2.18-.77-.4-1.55-.77-2.32-1.2l-1.15-.62-.56-.31-.14-.08c-.05,0,.07.06.1.07a2,2,0,0,0,.33.15Z" transform="translate(-109.98 -18)"/><path d="M139.18,479.71a8.94,8.94,0,0,1,.8.44,5.26,5.26,0,0,1,.61.4l.49.38.93.72c.6.47,1.22.91,1.83,1.36,1.24.89,2.51,1.76,3.82,2.58s2.66,1.62,4,2.43,2.75,1.51,4.13,2.27a163.28,163.28,0,0,0,17.42,7.77c6,2.35,12.11,4.29,18.29,6.17,3.1.89,6.23,1.72,9.35,2.58l9.45,2.28-9.68-1c-3.22-.46-6.44-.88-9.67-1.37-6.42-1.08-12.86-2.23-19.23-3.83a171.62,171.62,0,0,1-19-5.69c-1.55-.61-3.12-1.2-4.67-1.84s-3.1-1.3-4.62-2-3.06-1.49-4.58-2.3c-.75-.41-1.51-.82-2.25-1.26l-1.08-.64-.51-.3c-.16-.1,0,0,.09.08a1.48,1.48,0,0,0,.29.12Z" transform="translate(-109.98 -18)"/><path d="M141.4,493.92a14.14,14.14,0,0,1,1.37.77l.56.42,1,.76c.61.48,1.22.94,1.83,1.39,1.22.91,2.45,1.8,3.74,2.64,2.53,1.72,5.2,3.29,7.91,4.81a155.74,155.74,0,0,0,17,8l4.42,1.74,4.48,1.59c3,1.11,6,2,9.07,3s6.13,1.73,9.21,2.6l9.32,2.28-9.56-1c-3.17-.47-6.36-.87-9.53-1.4s-6.36-1-9.51-1.78l-4.74-1-4.72-1.18a160.24,160.24,0,0,1-18.65-6c-3.06-1.23-6.11-2.51-9.1-4-1.5-.72-3-1.52-4.45-2.34-.74-.41-1.47-.82-2.17-1.24l-1-.59c-.14-.07-.34-.2-.43-.24a.76.76,0,0,0,.33.18Z" transform="translate(-109.98 -18)"/><path d="M145.32,510.89c.34.17.68.35,1,.55l.25.14.13.09.27.18,1,.7,1.86,1.3c1.22.85,2.47,1.65,3.74,2.44,2.52,1.6,5.15,3.06,7.83,4.47a167.26,167.26,0,0,0,16.69,7.49l4.31,1.63,4.37,1.51c2.91,1.05,5.88,1.89,8.83,2.82s6,1.67,8.95,2.51l9.05,2.23-9.28-1c-3.08-.44-6.18-.81-9.27-1.3s-6.18-1-9.24-1.63l-4.62-.93L176.61,533a172.94,172.94,0,0,1-18.21-5.39c-3-1.1-6-2.27-8.93-3.61-1.47-.66-2.95-1.36-4.39-2.09l-2.14-1.1-1-.51-.23-.12-.12-.06h0s0,0,0,0Z" transform="translate(-109.98 -18)"/><path d="M147.87,526.49l.87.46.42.23.26.17,1,.68,1.86,1.25c1.22.83,2.45,1.61,3.7,2.38,2.5,1.53,5.06,3,7.69,4.35A169,169,0,0,0,180,543.35l4.22,1.59c1.41.53,2.85,1,4.27,1.49,2.85,1,5.75,1.86,8.64,2.77s5.83,1.64,8.75,2.47l8.85,2.2-9.09-1c-3-.42-6-.77-9.06-1.26s-6.05-1-9.05-1.59c-1.5-.3-3-.56-4.51-.9l-4.5-1a173.44,173.44,0,0,1-17.83-5.24c-2.95-1-5.86-2.2-8.75-3.46-1.44-.64-2.88-1.3-4.29-2l-2.08-1-.95-.45-.23-.1a.16.16,0,0,0-.09,0l-.15-.05Z" transform="translate(-109.98 -18)"/><path d="M149.54,542.1l.77.39c.24.13.55.29.69.38l1,.65,1.87,1.21c1.22.8,2.44,1.55,3.67,2.31,2.46,1.47,5,2.91,7.55,4.22a171.54,171.54,0,0,0,16,7.19c2.75,1,5.49,2.1,8.3,3s5.61,1.84,8.44,2.72,5.7,1.61,8.55,2.43l8.65,2.16-8.88-.93c-2.95-.41-5.93-.74-8.87-1.22s-5.92-.94-8.86-1.54-5.88-1.21-8.82-1.86a176.78,176.78,0,0,1-17.45-5.08c-2.89-1-5.73-2.13-8.57-3.32-1.41-.62-2.82-1.24-4.2-1.88l-2-.94-.92-.41a2,2,0,0,0-.31-.11l-.24-.08Z" transform="translate(-109.98 -18)"/><path d="M153.29,557.69l1.35.7,1,.61,1.88,1.18c1.21.76,2.41,1.5,3.62,2.22,2.43,1.44,4.89,2.82,7.42,4.11,5,2.6,10.27,4.91,15.61,7s10.81,4,16.35,5.63c2.76.88,5.57,1.59,8.36,2.4s5.63,1.42,8.45,2.13c-2.89-.3-5.79-.57-8.68-.91s-5.8-.7-8.68-1.18c-5.78-.86-11.54-2-17.28-3.29s-11.44-3-17.07-4.91c-2.83-1-5.62-2-8.39-3.18-1.39-.58-2.75-1.17-4.11-1.77l-2-.87-.92-.38-.62-.21Z" transform="translate(-109.98 -18)"/><path d="M157.79,573.29l1.24.63,1,.59c.68.39,1.25.75,1.87,1.12l3.59,2.15c2.38,1.41,4.8,2.73,7.27,4q7.41,3.78,15.27,6.85c5.23,2,10.55,3.91,16,5.53,2.7.88,5.44,1.56,8.17,2.36s5.49,1.4,8.25,2.1c-2.83-.29-5.66-.55-8.49-.88s-5.67-.67-8.48-1.14c-5.65-.82-11.28-1.94-16.89-3.19s-11.19-2.86-16.7-4.72c-2.76-.94-5.5-2-8.21-3.05-1.35-.54-2.69-1.11-4-1.66-.64-.27-1.33-.57-1.92-.8l-.89-.36-.71-.23Z" transform="translate(-109.98 -18)"/><path d="M163.29,588.89c.77.38,1.54.77,2.14,1.13l1.85,1.07,3.55,2.07c2.34,1.37,4.72,2.63,7.13,3.88,4.84,2.45,9.82,4.69,14.93,6.68s10.29,3.85,15.58,5.43c2.63.86,5.3,1.55,8,2.33s5.37,1.39,8.06,2.08c-2.76-.28-5.53-.53-8.29-.85s-5.54-.66-8.29-1.12c-5.52-.78-11-1.87-16.5-3.09s-10.93-2.76-16.32-4.53c-2.69-.92-5.38-1.86-8-2.9l-3.92-1.56-1.88-.75c-.64-.26-1.14-.4-1.64-.57Z" transform="translate(-109.98 -18)"/><path d="M164.75,604.48c1.46.72,2.68,1.42,3.86,2.09l3.49,2c2.31,1.31,4.65,2.55,7,3.75q7.09,3.59,14.58,6.51c5,1.94,10.05,3.76,15.21,5.32s10.37,3,15.63,4.34c-5.4-.51-10.8-1.07-16.19-1.9s-10.76-1.79-16.12-3-10.68-2.64-15.95-4.35c-2.63-.86-5.26-1.77-7.85-2.75L164.59,615c-1.27-.49-2.49-.94-3.52-1.26Z" transform="translate(-109.98 -18)"/><path d="M170.17,620.09c1.37.67,2.58,1.33,3.74,2l3.45,1.91c2.27,1.24,4.55,2.46,6.87,3.61q6.95,3.46,14.25,6.33c4.86,1.91,9.81,3.67,14.83,5.22s10.12,3,15.24,4.26c-5.26-.49-10.54-1-15.79-1.83s-10.51-1.71-15.74-2.87-10.43-2.53-15.58-4.15c-2.58-.8-5.14-1.69-7.67-2.59L170,630.6c-1.24-.46-2.43-.87-3.51-1.2Z" transform="translate(-109.98 -18)"/><path d="M178,635.69c2.57,1.26,4.73,2.5,7,3.7s4.48,2.38,6.75,3.48q6.8,3.36,13.91,6.15c4.73,1.88,9.56,3.58,14.45,5.11S230,657,235,658.34c-5.13-.48-10.28-1-15.4-1.77s-10.26-1.64-15.35-2.76-10.18-2.42-15.21-4c-2.52-.76-5-1.59-7.49-2.44s-5-1.76-7.16-2.42Z" transform="translate(-109.98 -18)"/><path d="M186.75,651.28c2.43,1.19,4.58,2.39,6.79,3.54s4.39,2.27,6.61,3.35q6.66,3.23,13.59,6c4.61,1.84,9.32,3.48,14.09,5s9.59,2.85,14.45,4.13c-5-.46-10-1-15-1.7s-10-1.56-15-2.64-9.93-2.31-14.85-3.75c-2.45-.72-4.9-1.5-7.31-2.29s-4.83-1.64-7.06-2.3Z" transform="translate(-109.98 -18)"/><path d="M193,666.9c4.54,2.28,8.68,4.52,13.05,6.59s8.76,4,13.26,5.76,9.09,3.37,13.72,4.86,9.34,2.8,14.07,4.07c-4.87-.44-9.76-.92-14.62-1.63s-9.75-1.49-14.59-2.5-9.68-2.19-14.47-3.54-9.59-2.94-14.1-4.32Z" transform="translate(-109.98 -18)"/><path d="M200.29,682.49c4.33,2.19,8.44,4.33,12.69,6.32s8.55,3.85,12.94,5.56,8.84,3.28,13.35,4.74,9.08,2.75,13.68,4c-4.74-.42-9.49-.88-14.23-1.55s-9.48-1.43-14.21-2.38-9.43-2-14.1-3.32-9.34-2.72-13.8-4.06Z" transform="translate(-109.98 -18)"/><path d="M204.94,698.08c4.16,2.1,8.2,4.14,12.35,6s8.34,3.7,12.61,5.36A252.62,252.62,0,0,0,256.18,718a253.25,253.25,0,0,1-27.66-3.73c-4.6-.88-9.18-1.92-13.74-3.09s-9.09-2.51-13.51-3.82Z" transform="translate(-109.98 -18)"/><path d="M215.46,713.68c4,2,7.93,4,12,5.8s8.14,3.54,12.3,5.14a265.56,265.56,0,0,0,25.55,8.32,267.93,267.93,0,0,1-26.9-3.51q-6.72-1.23-13.39-2.86c-4.44-1.08-8.86-2.31-13.22-3.6Z" transform="translate(-109.98 -18)"/><path d="M229.68,729.27a230.89,230.89,0,0,0,23.58,10.5c8.09,3.1,16.39,5.76,24.81,8.11-8.71-.71-17.44-1.75-26.14-3.29a237.87,237.87,0,0,1-25.93-6Z" transform="translate(-109.98 -18)"/><path d="M243.79,744.88c14.7,7.56,30.69,13.26,47,17.92-16.91-1.39-33.88-3.84-50.65-8.61Z" transform="translate(-109.98 -18)"/><path d="M134.87,440.27a11.06,11.06,0,0,1,1-1.93,9.93,9.93,0,0,1,.94-1.33l1-1.23,1-1A38.51,38.51,0,0,1,142.9,431a24,24,0,0,1,2.16-1.56l2.19-1.49a24.31,24.31,0,0,1,2.24-1.32l2.26-1.25c.76-.4,1.49-.87,2.27-1.21l2.31-1.05c1.55-.69,3.08-1.42,4.63-2.07l4.71-1.73,2.35-.86,1.17-.44,1.2-.35c12.63-4.16,25.57-6.48,38.47-8.53l9.71-1.3c1.62-.2,3.22-.47,4.85-.61l4.87-.45c6.49-.57,13-1.3,19.45-1.55l9.74-.54,4.86-.27,4.87-.12,19.46-.44-19.38,1.68-4.84.43-4.83.58L248,407.73c-6.44.67-12.81,1.81-19.2,2.79l-4.79.76c-1.59.23-3.16.61-4.75.91l-9.48,1.89c-12.55,2.83-25.08,5.93-36.84,10.67l-1.12.41-1.08.48-2.16,1-4.31,1.9c-1.4.69-2.75,1.46-4.12,2.17l-2.06,1.1c-.69.35-1.29.81-1.95,1.2l-1.92,1.24a20.45,20.45,0,0,0-1.87,1.27l-1.75,1.36a19.55,19.55,0,0,0-1.69,1.39,30,30,0,0,0-2.91,3l-.65.75-.48.74a4.37,4.37,0,0,0-.42.68c-.08.15-.26.54-.13.22Z" transform="translate(-109.98 -18)"/><path d="M585,403.88c-15.4-2.19-30.62-4.35-45.85-6.35s-30.43-3.92-45.66-5.51l-5.71-.65-5.71-.53c-3.81-.38-7.62-.8-11.44-1.15-7.63-.62-15.26-1.43-22.91-1.95-15.31-1.4-30.64-2.12-46.17-3.61A284.47,284.47,0,0,1,448,379.88c7.79-.24,15.56.09,23.34.35,3.88.16,7.76.52,11.64.77l5.81.47,5.81.61a382.34,382.34,0,0,1,46,7.74C555.68,393.37,570.68,397.69,585,403.88Z" transform="translate(-109.98 -18)"/><path d="M119.71,434.71l.11-.39a2.56,2.56,0,0,1,.1-.34l.18-.44a7,7,0,0,1,.36-.81,15,15,0,0,1,.75-1.38,19.84,19.84,0,0,1,1.65-2.34l.86-1.07.91-.95a21.42,21.42,0,0,1,1.88-1.82c.64-.55,1.28-1.12,1.93-1.66l2-1.47c1.31-1,2.74-1.78,4.1-2.65a97.58,97.58,0,0,1,17.26-7.64l4.44-1.35c1.48-.44,2.94-.93,4.44-1.27l4.47-1.11,2.23-.55c.75-.17,1.5-.31,2.25-.46l4.5-.9c1.49-.29,3-.62,4.49-.83l9-1.4-8.73,2.62c-1.46.41-2.88.93-4.32,1.42l-4.28,1.49c-.72.25-1.43.49-2.14.75l-2.1.84-4.19,1.68c-1.41.53-2.76,1.2-4.12,1.81l-4.07,1.89a91.79,91.79,0,0,0-14.94,9.21,40.65,40.65,0,0,0-3.2,2.76l-1.49,1.43-1.32,1.52a14.33,14.33,0,0,0-1.21,1.54l-.56.77-.45.78a10.37,10.37,0,0,0-.78,1.51,6.12,6.12,0,0,0-.24.67.81.81,0,0,0-.06.24v.1s0,0,0-.06,0-.08,0-.13Z" transform="translate(-109.98 -18)"/><path d="M642.47,484.49c.85.07,1.49.15,2.21.24l2.08.29c1.38.21,2.74.46,4.09.72,2.7.55,5.37,1.21,8,2a87.56,87.56,0,0,1,15.37,6A64,64,0,0,1,688,503.06a49.56,49.56,0,0,1,10.37,13,46.91,46.91,0,0,1,5.3,15.53,34.52,34.52,0,0,1,.49,4,30.41,30.41,0,0,1,.23,4v4c-.09,1.34-.23,2.67-.34,4-1,10.66-4.24,20.82-8.3,30.5l2.27-7.54c.64-2.54,1.21-5.1,1.81-7.63l.64-3.86c.18-1.29.48-2.56.57-3.86l.35-3.88c0-.64.13-1.29.15-1.93l0-1.94c0-1.29,0-2.58,0-3.86l-.3-3.84a28.54,28.54,0,0,0-.52-3.79,31.17,31.17,0,0,0-.75-3.73A42.6,42.6,0,0,0,694,518.6,44,44,0,0,0,684,507.85a57.3,57.3,0,0,0-12.89-7.32,79.33,79.33,0,0,0-14.31-4.34c-2.45-.48-4.92-.89-7.4-1.19-1.24-.14-2.48-.27-3.71-.36l-1.84-.11c-.58,0-1.25,0-1.71,0Z" transform="translate(-109.98 -18)"/><path d="M603.26,642.19c.17,0,.47.06.73.08l.83.07c.57,0,1.14.08,1.72.1,1.16.07,2.34.06,3.51.09,2.36,0,4.73-.11,7.11-.31A96.36,96.36,0,0,0,631.4,640a95.23,95.23,0,0,0,13.93-4.29,102.08,102.08,0,0,0,13.33-6.35,104.42,104.42,0,0,1-12.23,8.6,99.25,99.25,0,0,1-13.51,6.8,101.18,101.18,0,0,1-14.51,4.83c-2.49.64-5,1.17-7.57,1.63-1.29.2-2.57.42-3.89.57-.65.09-1.31.16-2,.22-.33,0-.66.07-1,.09s-.67,0-1.12.06Z" transform="translate(-109.98 -18)"/><path d="M624.24,474.61a250.54,250.54,0,0,1-1.07,33.09c-1,11-2.57,22-4.55,32.86a405.29,405.29,0,0,1-17.4,64.11c-2,5.18-3.89,10.39-6,15.5s-4.39,10.2-6.67,15.25c-1.18,2.51-2.42,5-3.63,7.49l-1.83,3.74-1.94,3.68c-1.31,2.44-2.58,4.91-3.92,7.34L573,664.88c-1.34,2.42-2.84,4.76-4.31,7.11s-2.9,4.72-4.45,7c-3.12,4.58-6.16,9.21-9.52,13.61A269.12,269.12,0,0,1,533.52,718c5.81-9.39,11.81-18.54,17.13-28.1,2.81-4.68,5.32-9.54,8-14.28,1.29-2.4,2.51-4.84,3.78-7.24s2.53-4.82,3.71-7.27c4.91-9.71,9.38-19.63,13.72-29.58,2.06-5,4.25-10,6.17-15.08s3.9-10.13,5.8-15.22c7.36-20.44,13.8-41.23,19.14-62.36q4-15.84,7.38-31.9T624.24,474.61Z" transform="translate(-109.98 -18)"/><path class="cls-5" d="M115.14,426.34s32,56.06,265,56.06,264.34-56.06,264.34-56.06" transform="translate(-109.98 -18)"/><path class="cls-3" d="M396.58,313.25a183.62,183.62,0,0,1-15.91-13,178.61,178.61,0,0,1-14.54-14.82,132.53,132.53,0,0,1-22.73-36.07,102.7,102.7,0,0,1-7.91-43.73,86.23,86.23,0,0,1,4.12-22.87c.64-1.86,1.35-3.71,2.06-5.54l1.18-2.7c.4-.88.83-1.75,1.25-2.62,1.71-3.45,3.6-6.7,5.54-9.82,3.92-6.19,8.09-11.75,12-17.08q2.94-4,5.61-7.8c.9-1.28,1.72-2.57,2.53-3.87l2.48-3.88a161,161,0,0,0,15.07-34,175.1,175.1,0,0,0,6.92-37.6,186.24,186.24,0,0,0,.22-19.65c-.18-6.66-1-13.29-1.8-20.14a102.83,102.83,0,0,1,8.64,18.81,126,126,0,0,1,5.21,20.35,139.11,139.11,0,0,1,0,42.58A140.39,140.39,0,0,1,393,140.93l-2.66,4.8c-.89,1.6-1.79,3.2-2.76,4.72-1.9,3.07-3.88,6-5.81,8.83L376,167.51c-1.85,2.66-3.64,5.29-5.25,7.88s-3.13,5.15-4.45,7.7l-1,1.91-.89,1.91-1.55,3.87a72.23,72.23,0,0,0-3.83,16.59,99.71,99.71,0,0,0,2.89,35.7c.39,1.5.77,3,1.23,4.48l.65,2.23.74,2.23c.48,1.49,1,3,1.6,4.45s1.14,3,1.73,4.44a191.24,191.24,0,0,0,8.26,17.57c3.05,5.83,6.39,11.58,9.82,17.35S393.08,307.35,396.58,313.25Z" transform="translate(-109.98 -18)"/><path class="cls-3" d="M434.3,179.08c-.52,1.64-1.1,3.15-1.65,4.62s-.92,3-1.41,4.43a84.64,84.64,0,0,0-2,8.58,93.25,93.25,0,0,0-1.44,16.44,107.3,107.3,0,0,0,4.45,31c3.06,10.25,7.86,22,10,35.22a68,68,0,0,1,.37,20.3,40.83,40.83,0,0,1-1,5,36.85,36.85,0,0,1-1.48,4.86,41.36,41.36,0,0,1-2,4.63c-.82,1.49-1.63,2.93-2.57,4.31-.47-1.65-.82-3.23-1.18-4.77a23.45,23.45,0,0,0-.61-2.29c-.23-.75-.4-1.49-.61-2.23-.36-1.47-.89-2.91-1.35-4.31-.26-.71-.4-1.4-.68-2.1l-.79-2.05a169.81,169.81,0,0,0-7-15.61c-2.54-5.11-5.24-10.27-7.89-15.8a124.6,124.6,0,0,1-7.2-18A71.13,71.13,0,0,1,406,241c-.25-1.76-.41-3.51-.56-5.27s-.18-3.51-.15-5.27a69.14,69.14,0,0,1,3.21-20.69,56.13,56.13,0,0,1,9.78-18.4,45.35,45.35,0,0,1,7.33-7.2,48.86,48.86,0,0,1,4.18-2.84C431.28,180.48,432.76,179.72,434.3,179.08Z" transform="translate(-109.98 -18)"/><path class="cls-2" d="M644.43,426.34S613,482.4,380.09,482.4s-264.95-56.06-264.95-56.06" transform="translate(-109.98 -18)"/></svg>